#!OML:ASF E:\emotionWalksFemale\Project 1\Capture day 1\Session 1\Female1.ASF
:FULLY-SPECIFIED
:DEGREES
383
root 8.01768 15.5076 6.08978 -179.386 -4.54211 -182.928
lowerback 9.74408 -0.225041 -3.94213
upperback -2.48046 -0.920356 -1.01069
thorax -8.07094 -0.297185 1.30343
lowerneck -5.29615 -2.43235 -4.33131
upperneck 7.76152 -3.2488 3.19143
head 3.61122 -1.64545 1.66561
rclavicle 9.39413e-015 4.77083e-015
rhumerus -38.5977 6.8132 -89.1267
rradius 35.4717
rwrist 13.9231
rhand -1.18639 -54.4748
rfingers 7.12502
rthumb 24.4535 -82.9339
lclavicle 9.39413e-015 4.77083e-015
lhumerus -31.2538 -7.69061 87.9588
lradius 37.9968
lwrist -10.7815
lhand -7.38729 -34.9768
lfingers 7.12502
lthumb 18.4983 -5.83636
rfemur -29.6024 1.13934 20.5393
rtibia 45.955
rfoot -14.963 -23.5406
rtoes 5.83203
lfemur -1.3244 -15.581 -32.2441
ltibia 20.1962
lfoot -20.69 21.0857
ltoes -23.5541
384
root 8.02718 15.4978 5.97193 -179.397 -4.72299 -183.093
lowerback 9.71299 -0.215593 -4.16653
upperback -2.31116 -0.932766 -1.04045
thorax -7.86805 -0.2999 1.39941
lowerneck -5.40016 -2.48039 -4.21905
upperneck 7.58817 -3.3062 3.18175
head 3.57011 -1.66605 1.6381
rclavicle 1.12896e-014 5.36719e-015
rhumerus -38.4502 6.12504 -88.7153
rradius 34.8473
rwrist 15.1301
rhand -1.567 -52.6198
rfingers 7.12502
rthumb 24.0886 -81.1277
lclavicle 1.12896e-014 5.36719e-015
lhumerus -31.0802 -8.17892 88.1673
lradius 38.6359
lwrist -9.72137
lhand -7.5778 -34.8642
lfingers 7.12502
lthumb 18.315 -5.70641
rfemur -29.5348 2.04703 20.0288
rtibia 43.4904
rfoot -15.5539 -23.949
rtoes 7.72548
lfemur -0.750378 -15.2261 -32.4522
ltibia 20.0331
lfoot -20.519 20.8437
ltoes -24.9274
385
root 8.0374 15.4899 5.85406 -179.447 -4.82801 -183.203
lowerback 9.75479 -0.186375 -4.39277
upperback -2.20089 -0.918518 -1.00873
thorax -7.77148 -0.284925 1.55797
lowerneck -5.44011 -2.50414 -4.33475
upperneck 7.53532 -3.32993 3.26694
head 3.56612 -1.67621 1.68615
rclavicle 5.90055e-015 -1.14301e-014
rhumerus -38.4091 5.68223 -88.4388
rradius 34.9314
rwrist 15.0928
rhand -1.0398 -53.362
rfingers 7.12502
rthumb 24.5941 -81.8021
lclavicle 5.90055e-015 -1.14301e-014
lhumerus -30.9785 -8.63376 88.464
lradius 39.237
lwrist -8.55406
lhand -7.79706 -34.8308
lfingers 7.12502
lthumb 18.1041 -5.6533
rfemur -29.4077 3.08489 19.5255
rtibia 40.9171
rfoot -15.9004 -24.4927
rtoes 9.67852
lfemur -0.183014 -14.8985 -32.6072
ltibia 19.9167
lfoot -20.335 20.7789
ltoes -26.1702
386
root 8.04641 15.4817 5.73423 -179.448 -4.84894 -183.042
lowerback 9.83246 -0.168386 -4.29496
upperback -2.20554 -0.876867 -0.928582
thorax -7.82321 -0.264365 1.58176
lowerneck -5.35436 -2.5377 -4.48193
upperneck 7.53972 -3.37561 3.3577
head 3.55976 -1.70111 1.74162
rclavicle -3.73207e-016 1.59028e-015
rhumerus -38.528 5.50473 -88.2588
rradius 34.8345
rwrist 15.1014
rhand -0.913945 -53.3879
rfingers 7.12502
rthumb 24.7147 -81.8115
lclavicle -3.73207e-016 1.59028e-015
lhumerus -31.0674 -9.26839 88.7575
lradius 39.8385
lwrist -7.42689
lhand -8.18625 -34.9205
lfingers 7.12502
lthumb 17.7296 -5.70882
rfemur -29.3185 4.34635 19.2472
rtibia 38.2991
rfoot -15.8551 -25.357
rtoes 10.2323
lfemur 0.366761 -14.6969 -32.4753
ltibia 19.7587
lfoot -20.3175 20.8
ltoes -26.4021
387
root 8.05592 15.4713 5.61021 -179.427 -4.85461 -182.858
lowerback 9.81038 -0.172612 -4.16775
upperback -2.16538 -0.85301 -0.840288
thorax -7.76817 -0.256348 1.59929
lowerneck -5.4112 -2.59616 -4.51749
upperneck 7.53981 -3.44471 3.32893
head 3.57423 -1.73635 1.7345
rclavicle 9.02529e-015 2.52457e-014
rhumerus -38.5433 5.60282 -88.2314
rradius 34.5868
rwrist 14.8917
rhand -1.32041 -53.2244
rfingers 7.12502
rthumb 24.3251 -81.7009
lclavicle 9.02529e-015 2.52457e-014
lhumerus -31.1485 -9.84246 88.9934
lradius 40.3997
lwrist -6.48598
lhand -8.52729 -35.0854
lfingers 7.12502
lthumb 17.4014 -5.84434
rfemur -29.1524 5.77854 18.9422
rtibia 35.6711
rfoot -15.8998 -26.3809
rtoes 10.5241
lfemur 0.944819 -14.539 -32.3191
ltibia 19.6028
lfoot -20.5632 20.7185
ltoes -25.6757
388
root 8.06425 15.4572 5.48522 -179.379 -4.91008 -182.938
lowerback 9.79762 -0.168646 -4.2431
upperback -2.16387 -0.859915 -0.866443
thorax -7.75858 -0.257708 1.61501
lowerneck -5.40317 -2.64476 -4.51162
upperneck 7.54282 -3.51527 3.37196
head 3.57807 -1.76977 1.74438
rclavicle -3.52066e-015 4.47266e-015
rhumerus -38.6445 5.38526 -88.1736
rradius 34.4179
rwrist 14.8989
rhand -1.64299 -53.4497
rfingers 7.12502
rthumb 24.0158 -81.9672
lclavicle -3.52066e-015 4.47266e-015
lhumerus -31.3951 -10.2549 89.1643
lradius 41.0006
lwrist -5.74073
lhand -8.78871 -35.4249
lfingers 7.12502
lthumb 17.1498 -6.16173
rfemur -28.9385 7.23427 18.2804
rtibia 33.1028
rfoot -16.3021 -27.3904
rtoes 11.38
lfemur 1.51587 -14.329 -32.4205
ltibia 19.4515
lfoot -20.9 20.3963
ltoes -24.7627
389
root 8.07144 15.4454 5.36003 -179.27 -4.99246 -183.074
lowerback 9.73066 -0.155105 -4.31125
upperback -2.19374 -0.856571 -0.941162
thorax -7.75302 -0.255931 1.57324
lowerneck -5.58473 -2.68209 -4.36168
upperneck 7.79531 -3.57464 3.28957
head 3.69779 -1.79934 1.68559
rclavicle 9.9998e-015 -1.33186e-014
rhumerus -38.7624 4.96 -88.0052
rradius 34.2197
rwrist 15.3019
rhand -1.4792 -53.5606
rfingers 7.12502
rthumb 24.1728 -82.0574
lclavicle 9.9998e-015 -1.33186e-014
lhumerus -31.4748 -10.5142 89.3227
lradius 41.3159
lwrist -5.28315
lhand -9.13564 -35.6939
lfingers 7.12502
lthumb 16.8159 -6.40204
rfemur -28.8353 8.8547 17.4346
rtibia 30.7099
rfoot -16.9093 -28.606
rtoes 12.1578
lfemur 2.06567 -14.0384 -32.534
ltibia 19.1928
lfoot -21.2812 19.8013
ltoes -22.6634
